<svg width="20" height="21" viewBox="0 0 20 21" fill="none" xmlns="http://www.w3.org/2000/svg">
<g clip-path="url(#clip0_76_1744)">
<path d="M14.1663 3.7334C13.7061 3.7334 13.333 4.1065 13.333 4.56673C13.333 5.02697 13.7061 5.40006 14.1663 5.40006H17.4997C17.9599 5.40006 18.333 5.02697 18.333 4.56673C18.333 4.1065 17.9599 3.7334 17.4997 3.7334H14.1663Z" fill="#777E91"/>
<path fill-rule="evenodd" clip-rule="evenodd" d="M11.667 11.234C11.667 8.93288 13.5325 7.06738 15.8337 7.06738C18.1348 7.06738 20.0003 8.93288 20.0003 11.234V12.0674C20.0003 12.5276 19.6272 12.9007 19.167 12.9007H13.3337C13.3337 14.2815 14.4529 15.4007 15.8337 15.4007C16.4149 15.4007 16.9497 15.2024 17.3743 14.8697C17.5961 14.6959 17.8581 14.5674 18.1399 14.5674C18.854 14.5674 19.3109 15.305 18.8113 15.8153C18.055 16.5879 17.0003 17.0674 15.8337 17.0674C13.5325 17.0674 11.667 15.2019 11.667 12.9007V11.234ZM15.8337 8.73405C14.4529 8.73405 13.3337 9.8533 13.3337 11.234H18.3337C18.3337 9.8533 17.2144 8.73405 15.8337 8.73405Z" fill="#777E91"/>
<path fill-rule="evenodd" clip-rule="evenodd" d="M1.66667 5.40006V8.7334H5.83333C6.75381 8.7334 7.5 7.98721 7.5 7.06673C7.5 6.14626 6.75381 5.40006 5.83333 5.40006H1.66667ZM8.16648 9.4474C8.78375 8.8424 9.16667 7.99929 9.16667 7.06673C9.16667 5.22578 7.67428 3.7334 5.83333 3.7334H1.33333C0.596953 3.7334 0 4.33036 0 5.06673V15.6381C0 16.4271 0.639594 17.0667 1.42858 17.0667H5.83333C8.13452 17.0667 10 15.2012 10 12.9001C10 11.4633 9.27283 10.1965 8.16648 9.4474ZM1.66667 10.4001V15.4001H5.83333C7.21404 15.4001 8.33333 14.2808 8.33333 12.9001C8.33333 11.5193 7.21404 10.4001 5.83333 10.4001H1.66667Z" fill="#777E91"/>
</g>
<defs>
<clipPath id="clip0_76_1744">
<rect width="20" height="20" fill="white" transform="translate(0 0.400391)"/>
</clipPath>
</defs>
</svg>
