<svg width="20" height="21" viewBox="0 0 20 21" fill="none" xmlns="http://www.w3.org/2000/svg">
<path fill-rule="evenodd" clip-rule="evenodd" d="M10.0003 17.0674C13.6822 17.0674 16.667 14.0826 16.667 10.4007C16.667 6.71882 13.6822 3.73405 10.0003 3.73405C6.31843 3.73405 3.33366 6.71882 3.33366 10.4007C3.33366 14.0826 6.31843 17.0674 10.0003 17.0674ZM10.0003 18.7341C14.6027 18.7341 18.3337 15.003 18.3337 10.4007C18.3337 5.79834 14.6027 2.06738 10.0003 2.06738C5.39795 2.06738 1.66699 5.79834 1.66699 10.4007C1.66699 15.003 5.39795 18.7341 10.0003 18.7341Z" fill="#777E91"/>
<path d="M12.8955 18.2173C12.5996 16.1088 12.1066 14.1953 11.4127 12.3864C9.71408 13.2099 7.81424 14.6488 5.20194 17.2148C4.74489 16.8923 4.32173 16.525 3.93886 16.1193C6.68249 13.4137 8.77799 11.796 10.7637 10.8493C10.509 10.297 10.2343 9.75259 9.93949 9.21317C7.60159 9.95001 4.93589 10.3383 1.66699 10.3938C1.66745 9.82176 1.72556 9.26317 1.83581 8.72357C4.72075 8.66176 7.05451 8.32785 9.07441 7.73439C8.13684 6.22997 7.03796 4.74501 5.77508 3.21639C6.2675 2.92616 6.79238 2.68511 7.34294 2.5C8.61733 4.0663 9.73391 5.60573 10.6901 7.18005C12.4865 6.47001 14.0787 5.5117 15.6682 4.29162C16.0767 4.67082 16.4472 5.0905 16.7731 5.54427C15.1199 6.82302 13.4341 7.85944 11.5247 8.64074C11.8057 9.16551 12.0692 9.69609 12.3155 10.2346C14.2043 9.63617 16.0636 9.57434 18.2926 9.56801C18.3197 9.84184 18.3337 10.1197 18.3337 10.4007C18.3337 10.6823 18.3197 10.9606 18.2924 11.235C16.1388 11.2427 14.5417 11.3033 12.9644 11.7782C13.6417 13.5411 14.1427 15.4048 14.4643 17.4388C13.9738 17.7505 13.4485 18.0124 12.8955 18.2173Z" fill="#777E91"/>
</svg>
