<svg width="167" height="32" viewBox="0 0 167 32" fill="none" xmlns="http://www.w3.org/2000/svg">
<path d="M16 0C7.2 0 0 7.2 0 16C0 24.8 7.2 32 16 32C24.8 32 32 24.8 32 16C32 7.2 24.8 0 16 0ZM24.1333 17.3333C24.4 19.7333 25.3333 22 26.6667 24C26.1333 24.6667 25.4667 25.3333 24.8 26C22.8 23.4667 21.6 20.5333 21.3333 17.3333H17.3333V29.2C16.9333 29.2 16.4 29.3333 16 29.3333C15.6 29.3333 15.0667 29.3333 14.6667 29.2V17.3333H10.6667C10.4 20.5333 9.2 23.4667 7.2 26C6.53333 25.3333 5.86667 24.6667 5.33333 24C6.8 22 7.73333 19.7333 7.86667 17.3333H2.8C2.66667 16.9333 2.66667 16.4 2.66667 16C2.66667 15.6 2.66667 15.0667 2.8 14.6667H8C7.73333 12.2667 6.8 10 5.33333 8C5.86667 7.33333 6.53333 6.66667 7.2 6C9.2 8.53333 10.4 11.4667 10.6667 14.6667H14.6667V2.8C15.0667 2.66667 15.6 2.66667 16 2.66667C16.4 2.66667 16.9333 2.66667 17.3333 2.8V14.6667H21.3333C21.6 11.4667 22.8 8.53333 24.8 6C25.4667 6.66667 26.1333 7.33333 26.6667 8C25.2 10 24.2667 12.2667 24.1333 14.6667H29.3333C29.3333 15.0667 29.4667 15.6 29.4667 16C29.4667 16.4 29.4667 16.9333 29.3333 17.3333H24.1333Z" fill="#23262F"/>
<path d="M52 7.248V9.96H45.016V14.256H50.368V16.92H45.016V24H41.656V7.248H52ZM55.6066 9.12C55.0146 9.12 54.5186 8.936 54.1186 8.568C53.7346 8.184 53.5426 7.712 53.5426 7.152C53.5426 6.592 53.7346 6.128 54.1186 5.76C54.5186 5.376 55.0146 5.184 55.6066 5.184C56.1986 5.184 56.6866 5.376 57.0706 5.76C57.4706 6.128 57.6706 6.592 57.6706 7.152C57.6706 7.712 57.4706 8.184 57.0706 8.568C56.6866 8.936 56.1986 9.12 55.6066 9.12ZM57.2626 10.704V24H53.9026V10.704H57.2626ZM64.0143 13.464V19.896C64.0143 20.344 64.1183 20.672 64.3263 20.88C64.5503 21.072 64.9183 21.168 65.4303 21.168H66.9903V24H64.8783C62.0463 24 60.6303 22.624 60.6303 19.872V13.464H59.0463V10.704H60.6303V7.416H64.0143V10.704H66.9903V13.464H64.0143ZM76.2949 10.512C77.8789 10.512 79.1589 11.016 80.1349 12.024C81.1109 13.016 81.5989 14.408 81.5989 16.2V24H78.2389V16.656C78.2389 15.6 77.9749 14.792 77.4469 14.232C76.9189 13.656 76.1989 13.368 75.2869 13.368C74.3589 13.368 73.6229 13.656 73.0789 14.232C72.5509 14.792 72.2869 15.6 72.2869 16.656V24H68.9269V10.704H72.2869V12.36C72.7349 11.784 73.3029 11.336 73.9909 11.016C74.6949 10.68 75.4629 10.512 76.2949 10.512ZM96.6741 17.064C96.6741 17.544 96.6421 17.976 96.5781 18.36H86.8581C86.9381 19.32 87.2741 20.072 87.8661 20.616C88.4581 21.16 89.1861 21.432 90.0501 21.432C91.2981 21.432 92.1861 20.896 92.7141 19.824H96.3381C95.9541 21.104 95.2181 22.16 94.1301 22.992C93.0421 23.808 91.7061 24.216 90.1221 24.216C88.8421 24.216 87.6901 23.936 86.6661 23.376C85.6581 22.8 84.8661 21.992 84.2901 20.952C83.7301 19.912 83.4501 18.712 83.4501 17.352C83.4501 15.976 83.7301 14.768 84.2901 13.728C84.8501 12.688 85.6341 11.888 86.6421 11.328C87.6501 10.768 88.8101 10.488 90.1221 10.488C91.3861 10.488 92.5141 10.76 93.5061 11.304C94.5141 11.848 95.2901 12.624 95.8341 13.632C96.3941 14.624 96.6741 15.768 96.6741 17.064ZM93.1941 16.104C93.1781 15.24 92.8661 14.552 92.2581 14.04C91.6501 13.512 90.9061 13.248 90.0261 13.248C89.1941 13.248 88.4901 13.504 87.9141 14.016C87.3541 14.512 87.0101 15.208 86.8821 16.104H93.1941ZM103.735 24.216C102.647 24.216 101.671 24.024 100.807 23.64C99.9426 23.24 99.2546 22.704 98.7426 22.032C98.2466 21.36 97.9746 20.616 97.9266 19.8H101.311C101.375 20.312 101.623 20.736 102.055 21.072C102.503 21.408 103.055 21.576 103.711 21.576C104.351 21.576 104.847 21.448 105.199 21.192C105.567 20.936 105.751 20.608 105.751 20.208C105.751 19.776 105.527 19.456 105.079 19.248C104.647 19.024 103.951 18.784 102.991 18.528C101.999 18.288 101.183 18.04 100.543 17.784C99.9186 17.528 99.3746 17.136 98.9106 16.608C98.4626 16.08 98.2386 15.368 98.2386 14.472C98.2386 13.736 98.4466 13.064 98.8626 12.456C99.2946 11.848 99.9026 11.368 100.687 11.016C101.487 10.664 102.423 10.488 103.495 10.488C105.079 10.488 106.343 10.888 107.287 11.688C108.231 12.472 108.751 13.536 108.847 14.88H105.631C105.583 14.352 105.359 13.936 104.959 13.632C104.575 13.312 104.055 13.152 103.399 13.152C102.791 13.152 102.319 13.264 101.983 13.488C101.663 13.712 101.503 14.024 101.503 14.424C101.503 14.872 101.727 15.216 102.175 15.456C102.623 15.68 103.319 15.912 104.263 16.152C105.223 16.392 106.015 16.64 106.639 16.896C107.263 17.152 107.799 17.552 108.247 18.096C108.711 18.624 108.951 19.328 108.967 20.208C108.967 20.976 108.751 21.664 108.319 22.272C107.903 22.88 107.295 23.36 106.495 23.712C105.711 24.048 104.791 24.216 103.735 24.216ZM116.333 24.216C115.245 24.216 114.269 24.024 113.405 23.64C112.541 23.24 111.853 22.704 111.341 22.032C110.845 21.36 110.573 20.616 110.525 19.8H113.909C113.973 20.312 114.221 20.736 114.653 21.072C115.101 21.408 115.653 21.576 116.309 21.576C116.949 21.576 117.445 21.448 117.797 21.192C118.165 20.936 118.349 20.608 118.349 20.208C118.349 19.776 118.125 19.456 117.677 19.248C117.245 19.024 116.549 18.784 115.589 18.528C114.597 18.288 113.781 18.04 113.141 17.784C112.517 17.528 111.973 17.136 111.509 16.608C111.061 16.08 110.837 15.368 110.837 14.472C110.837 13.736 111.045 13.064 111.461 12.456C111.893 11.848 112.501 11.368 113.285 11.016C114.085 10.664 115.021 10.488 116.093 10.488C117.677 10.488 118.941 10.888 119.885 11.688C120.829 12.472 121.349 13.536 121.445 14.88H118.229C118.181 14.352 117.957 13.936 117.557 13.632C117.173 13.312 116.653 13.152 115.997 13.152C115.389 13.152 114.917 13.264 114.581 13.488C114.261 13.712 114.101 14.024 114.101 14.424C114.101 14.872 114.325 15.216 114.773 15.456C115.221 15.68 115.917 15.912 116.861 16.152C117.821 16.392 118.613 16.64 119.237 16.896C119.861 17.152 120.397 17.552 120.845 18.096C121.309 18.624 121.549 19.328 121.565 20.208C121.565 20.976 121.349 21.664 120.917 22.272C120.501 22.88 119.893 23.36 119.093 23.712C118.309 24.048 117.389 24.216 116.333 24.216ZM141.298 12.432C141.298 13.328 141.082 14.168 140.65 14.952C140.234 15.736 139.57 16.368 138.658 16.848C137.762 17.328 136.626 17.568 135.25 17.568H132.442V24H129.082V7.248H135.25C136.546 7.248 137.65 7.472 138.562 7.92C139.474 8.368 140.154 8.984 140.602 9.768C141.066 10.552 141.298 11.44 141.298 12.432ZM135.106 14.856C136.034 14.856 136.722 14.648 137.17 14.232C137.618 13.8 137.842 13.2 137.842 12.432C137.842 10.8 136.93 9.984 135.106 9.984H132.442V14.856H135.106ZM146.563 12.768C146.995 12.064 147.555 11.512 148.243 11.112C148.947 10.712 149.747 10.512 150.643 10.512V14.04H149.755C148.699 14.04 147.899 14.288 147.355 14.784C146.827 15.28 146.563 16.144 146.563 17.376V24H143.203V10.704H146.563V12.768ZM158.33 24.216C157.05 24.216 155.898 23.936 154.874 23.376C153.85 22.8 153.042 21.992 152.45 20.952C151.874 19.912 151.586 18.712 151.586 17.352C151.586 15.992 151.882 14.792 152.474 13.752C153.082 12.712 153.906 11.912 154.946 11.352C155.986 10.776 157.146 10.488 158.426 10.488C159.706 10.488 160.866 10.776 161.906 11.352C162.946 11.912 163.762 12.712 164.354 13.752C164.962 14.792 165.266 15.992 165.266 17.352C165.266 18.712 164.954 19.912 164.33 20.952C163.722 21.992 162.89 22.8 161.834 23.376C160.794 23.936 159.626 24.216 158.33 24.216ZM158.33 21.288C158.938 21.288 159.506 21.144 160.034 20.856C160.578 20.552 161.01 20.104 161.33 19.512C161.65 18.92 161.81 18.2 161.81 17.352C161.81 16.088 161.474 15.12 160.802 14.448C160.146 13.76 159.338 13.416 158.378 13.416C157.418 13.416 156.61 13.76 155.954 14.448C155.314 15.12 154.994 16.088 154.994 17.352C154.994 18.616 155.306 19.592 155.93 20.28C156.57 20.952 157.37 21.288 158.33 21.288Z" fill="#23262F"/>
</svg>
